<svg width="133" height="109" viewBox="0 0 133 109" fill="none" xmlns="http://www.w3.org/2000/svg">
<g id="Chart">
<g id="Group">
<path id="Vector" d="M5 64.9777H27.4917C29.3556 64.9777 30.8667 63.4667 30.8667 61.6027V44.7095C30.8667 42.8455 32.3777 41.3345 34.2417 41.3345H38.8194C40.6833 41.3345 42.1944 42.8455 42.1944 44.7095V91.625C42.1944 93.489 43.7054 95 45.5694 95H50.5898C52.4537 95 53.9648 93.489 53.9648 91.625V17.375C53.9648 15.511 55.4758 14 57.3398 14H63.3018C65.1657 14 66.6768 15.511 66.6768 17.375V91.625C66.6768 93.489 68.1878 95 70.0518 95H74.1305C75.9945 95 77.5055 93.489 77.5055 91.625V44.7095C77.5055 42.8455 79.0165 41.3345 80.8805 41.3345H84.9593C86.8232 41.3345 88.3343 42.8455 88.3343 44.7095V61.6027C88.3343 63.4667 89.8453 64.9777 91.7093 64.9777H114.125" stroke="#D0E4FF" stroke-width="4.5"/>
<path id="Vector_2" d="M5 64.9777H27.4917C29.3556 64.9777 30.8667 63.4667 30.8667 61.6027V44.7095C30.8667 42.8455 32.3777 41.3345 34.2417 41.3345H38.8194C40.6833 41.3345 42.1944 42.8455 42.1944 44.7095V91.625C42.1944 93.489 43.7054 95 45.5694 95H50.5898C52.4537 95 53.9648 93.489 53.9648 91.625V17.375C53.9648 15.511 55.4758 14 57.3398 14H63.3018C65.1657 14 66.6768 15.511 66.6768 17.375V64.9777" stroke="#0F67FE" stroke-width="4.5"/>
</g>
</g>
</svg>
