<svg width="79" height="20" viewBox="0 0 79 20" fill="none" xmlns="http://www.w3.org/2000/svg">
<g id="Group">
<g id="g">
<path id="path" d="M36.0313 0H36.8376C38.6115 0.0537539 40.4392 0.430031 41.998 1.3976C43.2881 2.20391 44.2557 3.3865 44.7932 4.7841C45.1695 5.69791 45.3845 6.71924 45.4383 7.68681H39.6328C39.5791 6.8805 39.3103 6.02044 38.6653 5.4829C38.0202 4.89161 37.1064 4.73034 36.2463 4.7841C35.4938 4.7841 34.7412 5.05287 34.2037 5.59041C33.5587 6.23545 33.2361 7.09552 33.0749 7.95558C32.8599 8.9769 32.8599 10.052 32.9674 11.0733C33.0749 12.0946 33.2899 13.1697 33.9349 13.976C34.4187 14.6211 35.1175 14.9973 35.9238 15.1048C36.7301 15.2124 37.5902 15.1586 38.3428 14.7823C38.934 14.4598 39.3641 13.9223 39.5791 13.331C39.7404 12.9547 39.7941 12.5247 39.8479 12.0946H45.5995C45.492 13.761 45.0082 15.4274 44.0407 16.7712C43.1268 18.0076 41.8368 18.8676 40.3854 19.4052C39.3103 19.7814 38.1277 19.9427 36.9989 19.9965H36.0851C34.5262 19.9427 32.9674 19.6202 31.5698 18.9214C30.1722 18.2226 29.0433 17.1475 28.237 15.8036C27.2694 14.191 26.8394 12.2559 26.7857 10.4283C26.6782 8.38561 27.0007 6.39671 27.9145 4.67659C28.6133 3.27899 29.6884 2.0964 31.0322 1.34385C32.5373 0.430031 34.2575 0 36.0313 0Z" fill="#78AEFF"/>
<path id="path_2" d="M69.8422 0H70.7023C72.4224 0.0537539 74.1963 0.376277 75.6476 1.34385C76.4002 1.82763 77.0452 2.47268 77.4753 3.22523C77.959 4.0853 78.2278 4.99911 78.3353 5.96668H72.5837C72.5299 5.53665 72.3149 5.16038 72.0461 4.89161C71.6698 4.51533 71.0786 4.40782 70.541 4.35407C70.0572 4.30031 69.5197 4.35407 69.0359 4.46157C68.7134 4.56908 68.3909 4.7841 68.2833 5.16038C68.1758 5.4829 68.1758 5.91293 68.3909 6.1817C68.5521 6.45047 68.8746 6.61173 69.1972 6.71924C69.7347 6.93425 70.2722 7.04176 70.8098 7.20302C71.9386 7.52555 73.0674 7.74056 74.1963 8.06309C74.9488 8.2781 75.6476 8.54687 76.2927 8.92315C76.9915 9.35318 77.6365 9.94447 78.1203 10.6433C78.6041 11.3421 78.8191 12.2021 78.8729 13.0622C78.9266 14.0835 78.7654 15.1586 78.3353 16.1262C78.0128 16.8787 77.4753 17.5775 76.8302 18.1151C75.5939 19.0826 74.0888 19.5664 72.5299 19.7814C71.9386 19.8352 71.4011 19.8889 70.8098 19.8889H69.9497C68.5521 19.8352 67.1545 19.6202 65.8644 19.0289C64.6281 18.4913 63.4992 17.5238 62.8542 16.3412C62.3704 15.4811 62.1016 14.4598 61.9941 13.4922H67.9071C68.0146 13.9223 68.1758 14.406 68.4984 14.7286C68.7671 14.9973 69.0897 15.2124 69.4659 15.2661C69.9497 15.3736 70.4873 15.4274 70.971 15.3736C71.4548 15.3199 71.9924 15.2661 72.4224 14.9973C72.6912 14.8361 72.9062 14.5136 72.9599 14.191C73.0137 13.8685 72.9599 13.4922 72.6912 13.2235C72.4762 12.9547 72.0999 12.8472 71.7774 12.7397C71.1861 12.5784 70.6485 12.4172 70.0572 12.2559C68.9821 11.9871 67.9608 11.7184 66.8857 11.3421C66.1332 11.0733 65.3806 10.8583 64.6818 10.4283C63.9293 9.94447 63.2842 9.29943 62.8542 8.49312C62.4242 7.63306 62.2629 6.61173 62.2629 5.64416C62.3167 4.73034 62.5317 3.87028 62.9617 3.06397C63.3917 2.31142 64.0368 1.66637 64.7893 1.18259C66.2945 0.322523 68.0683 0.0537539 69.8422 0Z" fill="#78AEFF"/>
<path id="path_3" d="M5.2841 0.806309C5.76788 0.322523 6.46668 0 7.21924 0C7.97179 0 8.72435 0.26877 9.26189 0.806309L12.5409 4.0853L15.8199 0.806309C16.3036 0.322523 17.0562 0 17.755 0C18.5076 0 19.2064 0.26877 19.7439 0.806309L23.7754 4.83785C24.313 5.37539 24.6355 6.1817 24.5817 6.93425C24.528 7.63305 24.2592 8.2781 23.7754 8.76189C20.0127 12.4709 16.3036 16.2337 12.5409 19.9427C8.7781 16.2337 5.06908 12.4709 1.30631 8.76189C0.822523 8.2781 0.553754 7.63305 0.5 6.98801V6.55798C0.553754 5.91293 0.822523 5.26788 1.30631 4.7841C2.65016 3.494 3.94025 2.15016 5.2841 0.806309Z" fill="#78AEFF"/>
<path id="path_4" d="M44.2012 0.483398H50.3829C51.458 4.5687 52.4793 8.60024 53.5543 12.6855C54.6832 8.60024 55.812 4.5687 56.9408 0.483398H62.9075C60.8111 6.77261 58.661 13.0618 56.5108 19.351H50.4366C48.4477 13.1156 46.3513 6.82636 44.2012 0.483398Z" fill="#78AEFF"/>
</g>
</g>
</svg>
