<svg width="93" height="21" viewBox="0 0 93 21" fill="none" xmlns="http://www.w3.org/2000/svg">
<g id="Group">
<g id="g">
<path id="Subtract" fill-rule="evenodd" clip-rule="evenodd" d="M26.7144 0.629921C27.9743 0.96911 28.9676 1.96245 29.3068 3.22229C29.9367 5.52392 29.9125 10.321 29.9125 10.321C29.9125 10.321 29.9125 15.0939 29.3068 17.3955C28.9676 18.6554 27.9743 19.6487 26.7144 19.9879C24.4128 20.5936 15.2062 20.5936 15.2062 20.5936C15.2062 20.5936 6.02393 20.5936 3.69806 19.9637C2.43822 19.6245 1.44488 18.6311 1.10569 17.3713C0.5 15.0939 0.5 10.2968 0.5 10.2968C0.5 10.2968 0.5 5.52392 1.10569 3.22229C1.44488 1.96245 2.46245 0.944882 3.69806 0.605694C5.9997 0 15.2062 0 15.2062 0C15.2062 0 24.4128 0 26.7144 0.629921ZM12.2754 14.7066V5.8877L19.9314 10.2971L12.2754 14.7066Z" fill="#78AEFF"/>
</g>
<g id="g_2">
<g id="g_3">
<path id="path" d="M43.2123 18.7524C42.6308 18.3648 42.219 17.7591 41.9767 16.9111C41.7344 16.0873 41.6133 14.9729 41.6133 13.6161V11.7506C41.6133 10.3696 41.7586 9.25512 42.0252 8.40715C42.3159 7.55918 42.752 6.95348 43.3335 6.56584C43.9391 6.1782 44.7144 5.98438 45.6835 5.98438C46.6284 5.98438 47.4037 6.1782 47.9852 6.56584C48.5666 6.95348 48.9785 7.58341 49.245 8.40715C49.5115 9.23089 49.6569 10.3454 49.6569 11.7506V13.6161C49.6569 14.9971 49.5358 16.0873 49.2692 16.9353C49.0027 17.7591 48.5909 18.389 48.0094 18.7766C47.4279 19.1643 46.6284 19.3581 45.6351 19.3581C44.6175 19.3339 43.7938 19.14 43.2123 18.7524ZM46.4831 16.7173C46.6527 16.3054 46.7253 15.6028 46.7253 14.6579V10.6361C46.7253 9.71545 46.6527 9.03707 46.4831 8.60097C46.3135 8.16487 46.047 7.97105 45.6351 7.97105C45.2474 7.97105 44.9567 8.1891 44.8113 8.60097C44.6417 9.03707 44.5691 9.71545 44.5691 10.6361V14.6579C44.5691 15.6028 44.6417 16.3054 44.8113 16.7173C44.9567 17.1291 45.2474 17.3472 45.6593 17.3472C46.047 17.3472 46.3135 17.1534 46.4831 16.7173Z" fill="#78AEFF"/>
<path id="path_2" d="M87.9374 13.6409V14.2951C87.9374 15.1188 87.9616 15.7488 88.0101 16.1606C88.0585 16.5725 88.1554 16.8875 88.325 17.0571C88.4704 17.2509 88.7127 17.3478 89.0519 17.3478C89.4879 17.3478 89.7787 17.1782 89.9483 16.839C90.1179 16.4998 90.1906 15.9426 90.2148 15.1431L92.7102 15.2884C92.7345 15.4096 92.7345 15.5549 92.7345 15.7488C92.7345 16.9359 92.4195 17.8323 91.7654 18.4138C91.1112 18.9953 90.1906 19.286 89.0034 19.286C87.574 19.286 86.5806 18.8257 85.9992 17.9293C85.4177 17.0328 85.127 15.6518 85.127 13.7621V11.5089C85.127 9.57068 85.4177 8.16548 86.0234 7.26905C86.6291 6.37262 87.6466 5.93652 89.0761 5.93652C90.0694 5.93652 90.8447 6.13035 91.3777 6.49376C91.9107 6.85718 92.2741 7.43864 92.4922 8.1897C92.7102 8.96499 92.8072 10.031 92.8072 11.3878V13.5925H87.9374V13.6409ZM88.3008 8.21393C88.1554 8.40775 88.0585 8.69849 88.0101 9.11036C87.9616 9.52223 87.9374 10.1522 87.9374 11.0001V11.9208H90.0694V11.0001C90.0694 10.1764 90.0452 9.54646 89.9967 9.11036C89.9483 8.67426 89.8271 8.38353 89.6818 8.21393C89.5364 8.04434 89.2941 7.94743 89.0034 7.94743C88.6642 7.9232 88.4462 8.02011 88.3008 8.21393Z" fill="#78AEFF"/>
<path id="path_3" d="M36.1387 13.3984L32.8438 1.4541H35.7268L36.8898 6.85689C37.1805 8.18941 37.3986 9.32812 37.5439 10.273H37.6166C37.7135 9.59462 37.9316 8.48015 38.2708 6.88112L39.4821 1.4541H42.3653L39.0218 13.3984V19.1161H36.1629V13.3984H36.1387Z" fill="#78AEFF"/>
<path id="path_4" d="M59.0342 6.22656V19.1399H56.7568L56.5145 17.5651H56.4418C55.8361 18.7523 54.8912 19.358 53.6556 19.358C52.8076 19.358 52.1777 19.0673 51.7658 18.51C51.354 17.9528 51.1602 17.0806 51.1602 15.8692V6.22656H54.0675V15.6996C54.0675 16.2811 54.1402 16.6929 54.2613 16.9352C54.3824 17.1775 54.6005 17.2986 54.8912 17.2986C55.1335 17.2986 55.3758 17.226 55.6181 17.0564C55.8603 16.911 56.0299 16.7172 56.1268 16.4749V6.22656H59.0342Z" fill="#78AEFF"/>
<path id="path_5" d="M73.9346 6.22656V19.1399H71.6572L71.4149 17.5651H71.3422C70.7365 18.7523 69.7916 19.358 68.556 19.358C67.708 19.358 67.0781 19.0673 66.6662 18.51C66.2544 17.9528 66.0605 17.0806 66.0605 15.8692V6.22656H68.9679V15.6996C68.9679 16.2811 69.0406 16.6929 69.1617 16.9352C69.2828 17.1775 69.5009 17.2986 69.7916 17.2986C70.0339 17.2986 70.2762 17.226 70.5184 17.0564C70.7607 16.911 70.9303 16.7172 71.0272 16.4749V6.22656H73.9346Z" fill="#78AEFF"/>
<path id="path_6" d="M66.9329 3.80419H64.0498V19.1161H61.2151V3.80419H58.332V1.4541H66.9329V3.80419Z" fill="#78AEFF"/>
<path id="path_7" d="M83.5517 8.28618C83.3822 7.46243 83.0914 6.88097 82.7038 6.51755C82.3161 6.15414 81.7589 5.96031 81.0805 5.96031C80.5475 5.96031 80.0387 6.10568 79.5784 6.42064C79.1181 6.71137 78.7547 7.12325 78.5124 7.6078H78.4882V0.799805H75.6777V19.116H78.0763L78.367 17.9046H78.4397C78.6578 18.3407 78.9969 18.6799 79.4573 18.9464C79.9176 19.1887 80.4021 19.334 80.9594 19.334C81.9527 19.334 82.6553 18.8737 83.1157 17.9773C83.576 17.0808 83.8183 15.6514 83.8183 13.7374V11.7023C83.794 10.2244 83.7213 9.08569 83.5517 8.28618ZM80.8867 13.5436C80.8867 14.4885 80.8382 15.2153 80.7656 15.7483C80.6929 16.2813 80.5475 16.669 80.3779 16.887C80.1841 17.1051 79.9418 17.2262 79.6511 17.2262C79.4088 17.2262 79.1908 17.1778 78.9969 17.0566C78.8031 16.9355 78.6335 16.7659 78.5124 16.5478V9.23106C78.6093 8.89187 78.7789 8.60114 79.0212 8.35886C79.2634 8.14081 79.5299 8.01967 79.7965 8.01967C80.0872 8.01967 80.3295 8.14081 80.4748 8.35886C80.6444 8.60114 80.7413 8.98878 80.814 9.52179C80.8867 10.079 80.9109 10.8543 80.9109 11.8477V13.5436H80.8867Z" fill="#78AEFF"/>
</g>
</g>
</g>
</svg>
