<svg width="93" height="31" viewBox="0 0 93 31" fill="none" xmlns="http://www.w3.org/2000/svg">
<g id="Group">
<path id="Vector" d="M40.0016 15.9905C40.0016 20.3621 36.5816 23.5835 32.3846 23.5835C28.1875 23.5835 24.7676 20.3621 24.7676 15.9905C24.7676 11.588 28.1875 8.39746 32.3846 8.39746C36.5816 8.39746 40.0016 11.588 40.0016 15.9905ZM36.6672 15.9905C36.6672 13.2586 34.6851 11.3895 32.3846 11.3895C30.0841 11.3895 28.1019 13.2586 28.1019 15.9905C28.1019 18.695 30.0841 20.5915 32.3846 20.5915C34.6851 20.5915 36.6672 18.6915 36.6672 15.9905Z" fill="#78AEFF"/>
<path id="Vector_2" d="M56.4352 15.9905C56.4352 20.3621 53.0152 23.5835 48.8182 23.5835C44.6211 23.5835 41.2012 20.3621 41.2012 15.9905C41.2012 11.5915 44.6211 8.39746 48.8182 8.39746C53.0152 8.39746 56.4352 11.588 56.4352 15.9905ZM53.1008 15.9905C53.1008 13.2586 51.1187 11.3895 48.8182 11.3895C46.5177 11.3895 44.5355 13.2586 44.5355 15.9905C44.5355 18.695 46.5177 20.5915 48.8182 20.5915C51.1187 20.5915 53.1008 18.6915 53.1008 15.9905Z" fill="#78AEFF"/>
<path id="Vector_3" d="M72.1812 8.85619V22.488C72.1812 28.0955 68.8742 30.3858 64.9647 30.3858C61.2846 30.3858 59.0697 27.9244 58.2344 25.9114L61.1374 24.703C61.6543 25.9388 62.921 27.3972 64.9613 27.3972C67.4638 27.3972 69.0145 25.8532 69.0145 22.9468V21.8547H68.8982C68.1519 22.7756 66.714 23.5801 64.8997 23.5801C61.1031 23.5801 57.625 20.2731 57.625 16.0179C57.625 11.7318 61.1031 8.39746 64.8997 8.39746C66.7106 8.39746 68.1484 9.20195 68.8982 10.0955H69.0145V8.85962H72.1812V8.85619ZM69.2508 16.0179C69.2508 13.3442 67.4672 11.3895 65.1975 11.3895C62.897 11.3895 60.9696 13.3442 60.9696 16.0179C60.9696 18.6641 62.897 20.5915 65.1975 20.5915C67.4672 20.5915 69.2508 18.6641 69.2508 16.0179Z" fill="#78AEFF"/>
<path id="Vector_4" d="M77.4026 0.866211V23.1181H74.1504V0.866211H77.4026Z" fill="#78AEFF"/>
<path id="Vector_5" d="M90.0759 18.49L92.664 20.2154C91.8287 21.4513 89.8157 23.5806 86.3376 23.5806C82.0241 23.5806 78.8027 20.2462 78.8027 15.9876C78.8027 11.4721 82.0515 8.39453 85.9644 8.39453C89.9047 8.39453 91.8321 11.5303 92.462 13.2249L92.8077 14.0876L82.6575 18.2915C83.4346 19.8149 84.643 20.592 86.3376 20.592C88.0356 20.592 89.2132 19.7567 90.0759 18.49ZM82.1097 15.7582L88.8948 12.9408C88.5217 11.9925 87.3988 11.3318 86.0774 11.3318C84.3828 11.3318 82.0241 12.8278 82.1097 15.7582Z" fill="#78AEFF"/>
<path id="Vector_6" d="M12.4578 14.0153V10.7939H23.3133C23.4194 11.3553 23.4742 12.0194 23.4742 12.7384C23.4742 15.1552 22.8135 18.1439 20.6842 20.2732C18.613 22.4299 15.9668 23.5802 12.4612 23.5802C5.9637 23.5802 0.5 18.2876 0.5 11.7901C0.5 5.29253 5.9637 0 12.4612 0C16.0558 0 18.6165 1.41043 20.5404 3.24878L18.2673 5.52189C16.8877 4.22786 15.0185 3.22139 12.4578 3.22139C7.71304 3.22139 4.00211 7.04529 4.00211 11.7901C4.00211 16.5349 7.71304 20.3588 12.4578 20.3588C15.5354 20.3588 17.2882 19.1229 18.4111 18.0001C19.3217 17.0895 19.9208 15.7886 20.157 14.0118L12.4578 14.0153Z" fill="#78AEFF"/>
</g>
</svg>
