<svg width="24" height="24" viewBox="0 0 24 24" fill="none" xmlns="http://www.w3.org/2000/svg">
<g id="Monotone add">
<path id="Vector" fill-rule="evenodd" clip-rule="evenodd" d="M15.4617 4.98316C13.9211 2.32201 10.079 2.32203 8.53833 4.98316L2.74167 14.9956C1.19781 17.6622 3.12205 20.9997 6.20337 20.9997H17.7967C20.878 20.9997 22.8023 17.6622 21.2584 14.9956L15.4617 4.98316ZM11 15.4997C11 15.2236 11.2239 14.9997 11.5 14.9997H12.5C12.7761 14.9997 13 15.2236 13 15.4997V16.4997C13 16.7759 12.7761 16.9997 12.5 16.9997H11.5C11.2239 16.9997 11 16.7759 11 16.4997V15.4997ZM11 7.99972V13.9997H13V7.99972H11Z" fill="#8A3FFC"/>
</g>
</svg>
