<svg width="24" height="24" viewBox="0 0 24 24" fill="none" xmlns="http://www.w3.org/2000/svg">
<g id="Monotone add">
<g id="Vector">
<path d="M13 11.5351C13.5883 11.1948 14.2714 11 15 11H16V13H15C13.8954 13 13 13.8954 13 15V16H11V15C11 13.8954 10.1046 13 9 13H8V11H9C9.72857 11 10.4117 11.1948 11 11.5351L11 2H13L13 11.5351Z" fill="white"/>
<path d="M2 14V17C2 19.2091 3.79086 21 6 21H18C20.2091 21 22 19.2091 22 17V14H20V17C20 18.1046 19.1046 19 18 19H6C4.89543 19 4 18.1046 4 17V14H2Z" fill="white"/>
<path d="M13 11.5351C13.5883 11.1948 14.2714 11 15 11H16V13H15C13.8954 13 13 13.8954 13 15V16H11V15C11 13.8954 10.1046 13 9 13H8V11H9C9.72857 11 10.4117 11.1948 11 11.5351L11 2H13L13 11.5351Z" stroke="white"/>
<path d="M2 14V17C2 19.2091 3.79086 21 6 21H18C20.2091 21 22 19.2091 22 17V14H20V17C20 18.1046 19.1046 19 18 19H6C4.89543 19 4 18.1046 4 17V14H2Z" stroke="white"/>
</g>
</g>
</svg>
