<svg width="24" height="24" viewBox="0 0 24 24" fill="none" xmlns="http://www.w3.org/2000/svg">
<g id="Monotone add">
<rect id="Vector" x="5" y="5" width="14" height="14" rx="3" stroke="white" stroke-width="2"/>
<path id="Vector_2" d="M22 8L19 8" stroke="white" stroke-width="2"/>
<path id="Vector_3" d="M22 16L19 16" stroke="white" stroke-width="2"/>
<path id="Vector_4" d="M5 8L2 8" stroke="white" stroke-width="2"/>
<path id="Vector_5" d="M5 16L2 16" stroke="white" stroke-width="2"/>
<path id="Vector_6" d="M5 12L2 12" stroke="white" stroke-width="2"/>
<path id="Vector_7" d="M22 12L19 12" stroke="white" stroke-width="2"/>
<path id="Vector_8" d="M8 2L8 5" stroke="white" stroke-width="2"/>
<path id="Vector_9" d="M16 2L16 5" stroke="white" stroke-width="2"/>
<path id="Vector_10" d="M12 19L12 22" stroke="white" stroke-width="2"/>
<path id="Vector_11" d="M12 2L12 5" stroke="white" stroke-width="2"/>
<path id="Vector_12" d="M8 19L8 22" stroke="white" stroke-width="2"/>
<path id="Vector_13" d="M16 19L16 22" stroke="white" stroke-width="2"/>
<path id="Vector_14" d="M10 11.5V12.5C10 13.3284 10.6716 14 11.5 14H12.5C13.3284 14 14 13.3284 14 12.5V11.5C14 10.6716 13.3284 10 12.5 10H11.5C10.6716 10 10 10.6716 10 11.5Z" stroke="white" stroke-width="2"/>
</g>
</svg>
