<svg width="129" height="98" viewBox="0 0 129 98" fill="none" xmlns="http://www.w3.org/2000/svg">
<g id="Vector">
<rect x="1" y="-29.5" width="127" height="127" rx="11.5" stroke="#78AEFF"/>
<path id="Vector_2" d="M57.9099 45.8794H55.0961C54.9969 45.8794 54.9257 45.7675 54.9257 45.6608C54.9257 45.6228 56.423 40.7956 56.423 40.7956C56.4764 40.6151 56.4815 40.6098 56.5018 40.6098H56.5044C56.5271 40.6098 56.5298 40.6151 56.583 40.7956C56.583 40.7956 58.0802 45.6228 58.0802 45.6608C58.0802 45.7675 58.0038 45.8794 57.9099 45.8794ZM61.7051 34.8347C61.6911 34.787 61.663 34.7447 61.6244 34.7134C61.5858 34.682 61.5385 34.6632 61.489 34.6593H51.156C51.1068 34.6632 51.06 34.6818 51.0214 34.7126C50.9829 34.7434 50.9545 34.7851 50.9399 34.8322C50.9399 34.8322 45.2282 53.6882 45.2282 53.724C45.2282 53.8179 45.3019 53.8941 45.3985 53.8941H52.2287C52.2557 53.8829 52.2796 53.8652 52.2982 53.8426C52.3168 53.82 52.3296 53.7932 52.3355 53.7645L53.131 51.2227C53.1432 51.1912 53.1645 51.164 53.1921 51.1445C53.2196 51.1251 53.2524 51.1142 53.2861 51.1132L59.5877 51.1083C59.6561 51.1134 59.7173 51.1617 59.7428 51.2227L60.5561 53.7645C60.5688 53.8231 60.6095 53.8763 60.6629 53.8967L67.3838 53.8941C67.4776 53.8941 67.5566 53.8229 67.5566 53.7289C67.5566 53.6958 61.7051 34.8347 61.7051 34.8347ZM81.1763 42.5334L76.9795 42.536C76.9795 42.536 76.8678 42.5029 76.8678 42.3758L76.8653 40.2584C76.8653 40.1313 76.9771 40.0982 76.9771 40.0982H80.8255C81.2729 40.0982 82.1778 40.322 82.1778 41.3565C82.1778 42.3911 81.1763 42.5334 81.1763 42.5334ZM101.298 40.894H110.808V34.6585H98.5808C97.4372 34.6585 95.828 35.2484 94.9053 35.9321C93.9827 36.6158 92.6481 38.1741 92.6481 40.322C92.6481 42.4699 93.9521 44.14 93.9521 44.14C94.6206 44.9686 96.3035 46.6947 96.3035 46.6947C96.3416 46.7354 96.3645 46.7886 96.3645 46.8498C96.3645 46.9793 96.2602 47.0835 96.1306 47.0835H86.7126C85.5662 47.0784 85.4874 46.6235 85.4874 46.5574C85.4874 46.4405 85.6298 46.3668 85.6298 46.3668C86.0594 46.1608 86.9362 45.4769 86.9362 45.4769C88.797 44.0282 89.0209 42.0404 89.0209 40.9754C89.0209 39.9076 88.8606 38.019 86.9516 36.3643C85.0427 34.7094 82.6253 34.6636 82.6253 34.6636H69.1859V53.7842C69.1859 53.845 69.2418 53.8934 69.3029 53.8934H76.7839V48.5299C76.7839 48.4361 76.9286 48.5299 76.9286 48.5299L80.8255 52.4446C82.2109 53.845 84.5012 53.8934 84.5012 53.8934L99.2342 53.8908C101.748 53.8908 103.146 52.5234 103.53 52.142C103.911 51.7581 105.185 50.3272 105.185 47.9555C105.185 45.5864 104.102 44.3739 103.639 43.8173C103.228 43.319 101.586 41.5802 101.242 41.2192C101.222 41.2023 101.205 41.181 101.194 41.1569C101.182 41.1327 101.176 41.1063 101.176 41.0796C101.176 40.9955 101.225 40.9169 101.298 40.8938M41.8139 53.893C41.8648 53.893 41.9004 53.8574 41.9156 53.8014C41.9156 53.8014 47.7036 34.7904 47.7036 34.7724C47.7036 34.7215 47.6731 34.6658 47.6248 34.6607H40.4896C40.454 34.6607 40.4311 34.6887 40.4235 34.7268C40.4235 34.7293 38.9465 39.6707 38.9465 39.6733C38.9364 39.714 38.916 39.7394 38.8804 39.7394C38.8448 39.7394 38.8143 39.7038 38.8093 39.6733L37.2639 34.7243C37.2588 34.691 37.2334 34.6607 37.1978 34.6607L29.3178 34.6581C29.3063 34.6613 29.2958 34.6671 29.287 34.675C29.2781 34.683 29.2713 34.6929 29.2669 34.7039L27.8816 39.6707C27.8739 39.714 27.851 39.7394 27.8129 39.7394C27.7967 39.7391 27.7812 39.733 27.7691 39.7223C27.757 39.7116 27.7491 39.6969 27.7468 39.6809L26.2775 34.7192C26.2757 34.704 26.2691 34.6899 26.2585 34.6788C26.248 34.6678 26.2341 34.6606 26.219 34.6581H18.6136C18.5837 34.6586 18.5551 34.6708 18.5342 34.6922C18.5132 34.7136 18.5016 34.7424 18.5018 34.7724C18.5018 34.7825 18.5043 34.8029 18.5043 34.8029L24.3787 53.8014C24.394 53.8574 24.4296 53.893 24.4804 53.893L30.7973 53.8955C30.8352 53.8904 30.8735 53.8472 30.8835 53.8014C30.886 53.8014 33.0823 46.7323 33.0823 46.7323C33.095 46.689 33.1128 46.6638 33.1484 46.6638C33.1865 46.6638 33.207 46.6941 33.217 46.7297L35.3598 53.8319C35.3661 53.8499 35.3778 53.8654 35.3933 53.8763C35.4088 53.8873 35.4273 53.8931 35.4463 53.893H41.8139ZM36.3189 14.0008C35.1725 14.0008 33.5661 14.5904 32.6434 15.2743C31.7203 15.958 30.3862 17.5163 30.3862 19.6642C30.3862 21.8121 31.69 23.4823 31.69 23.4823C32.3587 24.3109 34.0413 26.0495 34.0413 26.0495C34.0795 26.0902 34.1023 26.1435 34.1023 26.202C34.1023 26.3317 33.9981 26.4385 33.8686 26.4385H18.5V33.2356H36.9723C39.4838 33.2356 40.8842 31.868 41.2681 31.4843C41.6495 31.1029 42.9205 29.6718 42.9205 27.3001C42.9205 24.931 41.8402 23.7058 41.3774 23.1492C40.9656 22.6509 39.3236 20.9225 38.9804 20.564C38.9598 20.5464 38.9433 20.5246 38.9319 20.5C38.9205 20.4754 38.9145 20.4487 38.9143 20.4216C38.9143 20.3377 38.9626 20.2615 39.0363 20.236H47.9331V33.2356H54.7734V20.2691H63.078V14.0008H36.3189ZM95.98 21.8759L91.7833 21.8784C91.7833 21.8784 91.6714 21.8454 91.6714 21.7183L91.6689 19.6008C91.6689 19.4737 91.7808 19.4407 91.7808 19.4407H95.6293C96.0766 19.4407 96.9815 19.6644 96.9815 20.699C96.9815 21.7335 95.9802 21.8759 95.9802 21.8759M101.516 26.4259C100.372 26.4209 100.291 25.966 100.291 25.8999C100.291 25.7829 100.433 25.7092 100.433 25.7092C100.863 25.5033 101.74 24.8194 101.74 24.8194C103.601 23.3706 103.825 21.3829 103.825 20.3178C103.825 19.25 103.664 17.3614 101.755 15.7067C99.8463 14.0518 97.4289 14.001 97.4289 14.001H83.9896V33.1265C83.9896 33.1875 84.0457 33.236 84.1067 33.236H91.5875V27.8747C91.5875 27.7781 91.7325 27.8747 91.7325 27.8747L95.6293 31.7868C97.0145 33.1873 99.3048 33.2356 99.3048 33.2356H110.807V26.4263H101.516V26.4259ZM73.0783 25.2201H70.2643C70.16 25.2201 70.0941 25.1082 70.0941 25.0014C70.0941 24.9608 71.5912 20.1363 71.5912 20.1363C71.6446 19.9558 71.6596 19.9505 71.67 19.9505H71.6726C71.6827 19.9505 71.698 19.9558 71.7514 20.1363C71.7514 20.1363 73.2484 24.961 73.2484 25.0014C73.2484 25.1082 73.18 25.2201 73.0783 25.2201ZM76.8656 14.1703C76.8522 14.1228 76.824 14.0807 76.7852 14.0501C76.7464 14.0195 76.6989 14.002 76.6495 14H66.3167C66.2151 14.0051 66.1286 14.0737 66.1006 14.1678C66.1006 14.1678 60.394 33.0289 60.394 33.0645C60.394 33.1585 60.4703 33.2348 60.5641 33.2348H67.3945C67.4505 33.2172 67.4909 33.1636 67.5036 33.1052L68.2994 30.5608C68.3122 30.53 68.3337 30.5035 68.3612 30.4845C68.3887 30.4656 68.4211 30.455 68.4545 30.454H74.7533C74.787 30.4563 74.8195 30.4677 74.8472 30.4869C74.875 30.5062 74.897 30.5326 74.9109 30.5634L75.7245 33.1052C75.737 33.1638 75.7777 33.217 75.8311 33.2374L82.552 33.2348C82.5742 33.2353 82.5964 33.2313 82.6171 33.2231C82.6379 33.2149 82.6567 33.2026 82.6726 33.1869C82.6885 33.1713 82.7011 33.1526 82.7096 33.132C82.7181 33.1114 82.7225 33.0893 82.7223 33.067C82.7223 33.0365 76.8656 14.1703 76.8656 14.1703Z" fill="#78AEFF"/>
</g>
</svg>
