<svg width="129" height="98" viewBox="0 0 129 98" fill="none" xmlns="http://www.w3.org/2000/svg">
<g id="Vector">
<rect x="1" y="-29.5" width="127" height="127" rx="11.5" stroke="#78AEFF"/>
<path id="Vector_2" d="M32.6003 44.5175C31.2765 44.7423 29.9294 44.8097 28.5359 44.9892L24.2856 32.9502V45.5059C22.9619 45.6406 21.7542 45.8203 20.5 46V23H24.0303L28.861 36.05V23H32.6003V44.5175ZM39.9162 31.4229C41.3563 31.4229 43.5626 31.3555 44.8864 31.3555V34.9491C43.2373 34.9491 41.3098 34.9491 39.9162 35.0165V40.3623C42.0994 40.2276 44.2826 40.0478 46.4889 39.9804V43.4391L36.2001 44.2254V23H46.4889V26.5938H39.9162V31.4229ZM60.3078 26.5938H56.4525V43.1251C55.1983 43.1251 53.9441 43.1251 52.7366 43.1699V26.5938H48.8813V23H60.308L60.3078 26.5938ZM66.3463 31.1759H71.4327V34.7695H66.3463V42.9229H62.6997V23H73.0816V26.5938H66.3463V31.1759ZM79.1201 39.7783C81.2337 39.8231 83.3702 39.9806 85.4374 40.0927V43.6416C82.1162 43.4393 78.795 43.2374 75.4042 43.1699V23H79.1201V39.7783ZM88.5727 43.8887C89.7572 43.9562 91.0114 44.0236 92.2191 44.1581V23H88.5727V43.8887ZM108.5 23L103.785 33.9385L108.5 46C107.106 45.8203 105.713 45.5732 104.319 45.3486L101.649 38.7003L98.9315 44.8097C97.5841 44.5849 96.2836 44.5175 94.9367 44.3378L99.7211 33.8036L95.4011 23H99.3956L101.834 29.042L104.436 23H108.5Z" fill="#78AEFF"/>
</g>
</svg>
